<svg width="877" height="588" viewBox="0 0 877 588" fill="none" xmlns="http://www.w3.org/2000/svg">
<g filter="url(#filter0_d_870_2636)">
<path d="M51.0314 370.913C48.4314 370.513 47.0314 370.213 45.5314 370.113C25.0314 368.813 12.2314 355.413 12.1314 334.613C12.0314 299.813 12.1314 264.913 12.1314 230.113C12.1314 223.613 11.7314 217.113 12.5314 210.613C14.6314 192.313 27.0314 181.413 45.4314 180.913C46.2314 180.913 47.0314 180.813 48.7314 180.713C42.1314 169.413 45.0314 157.413 44.8314 145.813C44.5314 129.613 44.7314 113.513 44.6314 97.3126C44.6314 95.5126 44.6314 93.7126 44.6314 93.3126C36.7314 90.6126 29.2314 89.3126 22.9314 85.7126C12.5314 80.0126 7.83143 70.2126 7.83143 58.2126C7.83143 53.0126 7.83143 47.9126 7.83143 42.7126C7.83143 23.1126 21.3314 9.51262 41.1314 9.31262C64.4314 9.11263 87.8314 9.31262 111.131 9.31262C115.831 9.31262 120.431 9.31262 125.131 9.41262C131.631 9.61262 137.731 7.91263 144.031 6.71263C161.331 3.21263 179.231 2.91263 196.431 6.91263C209.231 9.91263 216.531 21.8126 216.631 35.2126C216.631 36.5126 216.731 37.8126 216.831 38.4126C226.731 40.3126 236.431 41.2126 245.431 44.4126C254.431 47.5126 262.631 52.9126 272.031 57.7126C283.131 49.3126 297.231 44.0126 312.531 42.4126C341.831 39.3126 368.431 45.1126 389.031 67.8126C407.131 87.8126 412.731 111.513 408.531 137.913C406.231 152.613 400.631 165.713 391.631 176.913C395.031 183.913 400.631 185.713 407.631 184.913C411.931 184.413 416.331 184.813 420.631 184.813C439.431 184.913 448.131 191.613 453.031 209.213C456.231 210.413 459.231 211.813 462.431 212.813C463.731 213.213 465.331 213.313 466.531 212.813C485.131 206.613 503.731 204.913 523.031 209.613C530.731 211.413 539.231 209.913 547.531 209.913C549.031 199.313 553.131 191.213 561.031 185.413C566.331 181.513 572.231 179.513 578.731 179.413C588.431 179.313 598.031 179.313 607.731 179.513C626.131 179.913 638.931 193.113 638.931 211.413C638.931 253.613 638.931 295.713 638.931 337.913C638.931 356.813 629.531 368.013 610.831 371.413C610.031 371.513 609.231 371.813 607.231 372.313C617.331 377.013 623.331 384.613 628.931 392.713C629.731 393.913 632.431 394.113 634.331 394.113C658.631 393.913 682.931 393.513 707.231 393.313C711.531 393.313 716.031 393.013 720.131 394.113C734.031 398.013 748.231 396.713 762.231 396.313C773.231 396.013 783.031 398.513 791.731 406.413C800.931 397.013 812.631 396.613 824.631 397.213C831.631 397.513 838.731 396.913 845.531 398.013C867.431 401.713 877.831 421.013 869.131 441.513C858.631 466.213 847.731 490.713 837.131 515.313C830.131 531.513 823.331 547.813 816.531 564.013C811.331 576.313 800.631 583.513 787.231 583.513C778.531 583.513 769.931 583.713 761.231 583.513C744.831 583.113 732.031 572.413 730.231 557.213C729.731 553.213 730.631 549.013 731.031 544.213C725.331 544.213 719.631 544.513 713.831 544.113C709.731 543.913 705.631 542.813 701.631 542.113C700.631 541.913 699.631 541.313 698.831 541.613C682.031 545.713 665.031 542.813 648.131 543.313C634.231 543.713 620.231 542.413 606.231 542.613C599.831 542.713 593.431 545.013 587.031 545.313C570.731 546.213 555.731 541.913 541.931 533.213C538.831 531.213 536.431 530.713 533.031 533.013C521.731 540.613 508.931 544.113 494.631 545.113C494.631 547.613 494.631 550.013 494.631 552.413C494.531 569.113 481.231 582.613 464.631 582.813C455.931 582.913 447.331 582.713 438.631 582.813C422.731 582.913 405.531 569.813 406.631 550.913C406.731 548.613 406.631 546.313 406.631 543.313C401.731 543.313 397.231 544.213 393.231 543.113C385.431 540.913 378.031 542.613 370.331 542.913C356.731 543.413 342.931 543.713 329.331 542.813C321.731 542.313 314.431 542.413 306.931 542.813C296.931 543.313 286.931 542.913 276.931 542.913C269.431 542.913 262.531 541.113 256.131 537.013C254.931 536.213 252.531 536.713 250.931 537.313C222.831 549.113 195.531 548.113 168.831 533.113C167.431 532.313 166.031 531.313 164.631 530.413C163.231 529.513 161.931 528.513 160.331 527.513C141.831 540.613 121.031 545.913 98.6314 545.613C28.4314 544.813 -13.1686 478.313 10.8314 416.213C17.6314 398.513 29.7314 384.613 45.8314 374.413C47.3314 373.413 48.6314 372.513 51.0314 370.913ZM219.931 352.113C221.031 359.913 223.731 366.713 228.331 372.413C237.931 384.313 250.931 389.513 265.831 390.713C301.431 393.513 324.831 372.013 324.831 336.413C324.831 305.313 324.931 274.113 324.931 243.013C324.931 241.113 324.931 239.213 324.931 237.313C315.731 237.313 307.331 237.313 298.731 237.313C298.531 241.213 298.431 244.813 298.231 249.113C296.831 247.813 296.031 247.213 295.431 246.513C277.531 227.113 245.131 233.913 231.831 247.913C216.831 263.813 212.631 290.613 222.331 312.313C233.431 337.113 262.331 347.213 286.031 334.313C290.531 331.913 294.431 328.213 298.731 324.913C298.731 330.513 299.131 336.213 298.631 341.813C297.731 351.313 294.331 359.713 285.631 364.813C271.031 373.313 254.131 367.613 246.431 352.013C237.831 352.113 229.031 352.113 219.931 352.113ZM45.1314 337.813C65.4314 337.813 85.0314 338.313 104.731 337.613C120.731 337.013 135.131 331.013 146.231 319.213C162.031 302.413 166.331 282.013 162.231 259.813C156.631 229.413 132.031 209.513 100.031 208.813C82.7314 208.513 65.3314 208.713 48.0314 208.713C47.1314 208.713 46.1314 209.013 45.2314 209.113C45.1314 252.113 45.1314 294.713 45.1314 337.813ZM361.731 511.413C361.731 509.613 361.731 507.713 361.731 505.813C361.731 489.813 361.731 473.813 361.831 457.813C361.931 448.613 366.731 441.613 374.431 440.313C388.531 437.813 400.531 443.013 400.831 460.913C401.031 473.913 400.831 486.913 400.831 499.913C400.831 503.713 400.831 507.513 400.831 511.413C409.531 511.413 417.531 511.413 425.731 511.413C425.731 492.213 426.531 473.313 425.431 454.513C424.531 439.713 418.031 427.213 403.031 421.213C394.431 417.713 385.531 417.513 376.531 419.213C367.531 420.913 361.031 426.213 355.831 434.013C349.131 423.513 339.831 418.513 328.131 418.013C316.631 417.413 306.231 420.513 297.031 429.813C297.031 425.713 297.031 422.913 297.031 420.213C288.331 420.213 280.031 420.213 272.231 420.213C272.231 450.813 272.231 481.013 272.231 511.213C281.131 511.213 289.331 511.213 297.831 511.213C297.831 508.313 297.831 505.813 297.831 503.313C297.731 488.613 297.531 474.013 297.531 459.313C297.531 453.313 298.931 447.713 303.831 443.613C315.431 434.013 332.731 440.113 335.531 454.813C336.031 457.613 336.131 460.413 336.131 463.213C336.231 479.213 336.131 495.113 336.131 511.413C344.831 511.413 352.831 511.413 361.731 511.413ZM184.931 78.1126C184.931 61.7126 184.931 46.1126 184.931 30.3126C175.431 30.3126 166.231 30.3126 156.931 30.3126C156.931 76.9126 156.931 123.113 156.931 169.413C166.431 169.413 175.431 169.413 184.631 169.413C184.631 149.913 184.531 130.913 184.631 112.013C184.731 98.0126 193.031 89.0126 206.431 88.4126C221.431 87.7126 231.331 95.8126 231.831 110.313C232.431 128.313 232.131 146.313 232.231 164.313C232.231 166.113 232.231 167.813 232.231 169.513C242.031 169.513 251.031 169.513 259.831 169.513C259.831 146.513 260.331 123.813 259.631 101.213C259.331 90.0126 253.931 80.5126 244.431 73.7126C227.331 61.4126 203.531 62.9126 184.931 78.1126ZM560.531 338.613C560.531 304.613 560.531 271.413 560.531 237.413C554.931 237.413 549.631 237.413 544.331 237.413C534.331 237.413 534.331 237.413 533.931 247.113C533.931 247.713 533.831 248.313 533.631 249.213C532.831 248.713 532.331 248.513 532.131 248.213C515.631 227.413 475.231 231.113 460.631 257.313C450.631 275.313 450.131 293.913 458.031 312.613C469.731 340.213 503.231 349.213 527.431 331.513C529.731 329.813 531.731 327.613 534.631 325.013C534.631 329.813 534.631 333.913 534.631 338.113C536.631 338.213 538.131 338.413 539.631 338.413C546.431 338.613 553.231 338.613 560.531 338.613ZM436.131 420.413C436.831 464.313 437.431 507.813 438.031 551.613C446.331 551.613 454.331 551.613 462.631 551.613C462.631 543.113 462.631 535.013 462.631 526.813C462.631 518.713 462.631 510.613 462.631 502.113C463.531 502.713 464.131 502.913 464.531 503.413C478.231 517.413 500.731 516.513 515.131 506.513C532.031 494.813 536.631 477.613 534.531 458.213C532.731 441.413 524.131 428.813 508.631 422.513C492.531 415.913 476.631 416.613 463.031 429.413C462.931 429.513 462.431 429.313 461.731 429.113C461.731 426.413 461.731 423.613 461.731 420.513C453.231 420.413 444.931 420.413 436.131 420.413ZM157.731 428.513C157.431 422.613 155.031 416.413 150.231 410.113C133.531 388.113 106.931 381.513 79.0314 389.913C30.7314 404.313 25.5314 462.413 49.7314 491.513C67.9314 513.313 91.7314 517.413 118.031 512.513C129.331 510.413 139.431 505.113 147.331 496.513C153.331 490.013 157.431 482.413 159.731 473.113C150.331 473.113 141.631 473.013 133.031 473.213C131.931 473.213 130.431 474.413 129.831 475.513C120.931 491.513 99.0314 495.213 84.7314 487.713C68.3314 479.113 60.5314 461.113 64.3314 440.813C67.1314 425.813 77.8314 414.213 92.1314 411.413C107.631 408.413 120.431 412.813 129.631 426.113C130.331 427.213 131.831 428.413 132.931 428.513C141.131 428.613 149.431 428.513 157.731 428.513ZM376.931 137.213C367.831 137.213 359.431 137.113 350.931 137.313C350.031 137.313 348.931 138.413 348.331 139.313C342.131 148.413 333.031 150.613 322.931 149.713C310.631 148.613 300.831 138.713 300.731 127.013C326.631 127.013 352.531 127.013 378.331 127.013C382.431 98.1126 364.931 72.5126 338.531 67.9126C307.531 62.6126 279.731 75.9126 273.031 107.913C267.031 136.513 283.231 164.313 311.031 170.713C339.131 177.113 369.431 166.313 376.931 137.213ZM611.731 431.013C594.031 412.613 562.031 415.713 548.331 436.913C537.631 453.313 536.731 471.113 544.731 488.813C553.531 508.213 574.331 518.413 593.731 512.613C600.631 510.613 606.831 506.213 613.331 502.913C613.531 505.213 613.731 508.613 613.931 511.913C621.931 511.913 629.631 511.913 637.331 511.913C637.331 481.413 637.331 451.313 637.331 421.213C628.831 421.213 620.731 421.213 612.231 421.213C612.031 424.313 611.831 427.213 611.731 431.013ZM213.731 417.913C183.631 418.213 164.231 437.113 164.931 466.413C165.631 494.513 186.131 514.313 216.231 513.813C242.931 513.313 263.831 491.613 263.631 464.113C263.431 436.713 242.731 417.613 213.731 417.913ZM75.8314 169.613C85.9314 169.613 95.1314 169.613 105.231 169.613C105.231 132.713 105.231 96.0126 105.231 59.0126C117.831 59.0126 129.631 59.0126 141.531 59.0126C141.531 51.2126 141.531 43.8126 141.531 36.2126C107.431 36.2126 73.5314 36.2126 39.4314 36.2126C39.4314 43.9126 39.4314 51.2126 39.4314 59.1126C51.5314 59.1126 63.4314 59.1126 75.7314 59.1126C75.8314 96.2126 75.8314 132.613 75.8314 169.613ZM740.631 422.313C741.131 423.913 741.331 425.213 741.931 426.313C753.731 453.113 765.631 479.913 777.331 506.713C778.231 508.713 778.331 511.613 777.631 513.513C774.131 522.513 770.231 531.313 766.531 540.213C764.931 544.113 763.331 548.013 761.531 552.613C768.231 552.613 774.131 552.113 779.831 552.713C785.931 553.313 788.831 551.113 791.131 545.413C805.431 510.613 820.131 476.013 834.731 441.313C837.231 435.313 839.631 429.213 842.331 422.613C832.931 422.613 824.431 422.513 815.931 422.813C814.731 422.813 813.131 424.713 812.531 426.113C806.031 443.213 799.631 460.413 793.231 477.513C792.831 478.413 792.331 479.313 791.531 480.913C783.631 460.813 776.131 441.413 768.631 422.213C759.231 422.313 750.131 422.313 740.631 422.313ZM740.631 512.413C740.831 511.413 741.031 510.813 741.031 510.213C741.031 491.713 741.431 473.213 740.831 454.713C739.931 429.713 719.931 414.213 695.231 419.713C688.431 421.213 682.231 425.413 675.931 428.213C675.831 426.513 675.631 423.913 675.531 421.313C666.931 421.313 658.731 421.313 650.731 421.313C650.731 451.813 650.731 481.813 650.731 512.013C659.431 512.013 667.631 512.013 676.131 512.013C676.131 509.913 676.131 508.313 676.131 506.613C676.131 490.813 676.031 474.913 676.031 459.113C676.031 447.813 682.531 440.713 692.931 440.013C704.931 439.213 714.331 445.813 714.931 456.813C715.831 472.413 715.631 488.113 715.831 503.713C715.831 506.513 715.831 509.313 715.831 512.313C724.431 512.413 732.431 512.413 740.631 512.413ZM395.331 211.313C395.331 220.113 395.331 228.513 395.331 237.413C390.931 237.413 387.131 237.413 383.131 237.413C383.131 244.513 383.131 251.113 383.131 258.013C387.431 258.313 391.431 258.613 395.731 258.913C395.731 266.413 395.631 273.413 395.731 280.413C395.931 291.913 395.731 303.413 396.631 314.813C397.531 326.213 404.031 334.613 415.231 337.013C424.831 339.013 434.831 338.713 444.931 339.413C444.931 331.113 444.931 324.213 444.931 317.013C441.731 317.013 438.931 317.013 436.031 317.013C425.331 317.013 422.531 314.213 422.531 303.313C422.531 290.013 422.631 276.613 422.631 263.313C422.631 261.913 422.831 260.413 423.031 258.513C429.331 258.513 435.331 258.613 441.331 258.413C442.731 258.313 445.131 257.013 445.131 256.113C445.431 250.013 445.331 243.913 445.331 237.213C437.531 237.213 430.431 237.213 422.731 237.213C422.731 228.213 422.731 219.813 422.731 211.213C413.631 211.313 405.031 211.313 395.331 211.313ZM607.231 338.513C607.231 294.313 607.231 250.313 607.231 206.013C598.131 206.013 589.331 206.013 580.331 206.013C580.331 250.213 580.331 294.213 580.331 338.513C589.431 338.513 598.131 338.513 607.231 338.513ZM203.131 337.713C203.131 304.013 203.131 270.613 203.131 237.113C194.231 237.113 185.631 237.113 177.131 237.113C177.131 270.813 177.131 304.213 177.131 337.713C185.931 337.713 194.431 337.713 203.131 337.713ZM371.231 337.913C371.231 303.913 371.231 270.613 371.231 237.313C362.231 237.313 353.731 237.313 345.231 237.313C345.231 271.013 345.231 304.413 345.231 337.913C354.031 337.913 362.531 337.913 371.231 337.913ZM173.931 206.913C173.931 216.613 180.231 223.113 190.131 223.213C199.331 223.413 206.531 216.513 206.631 207.513C206.731 198.613 199.331 191.313 190.131 191.213C180.631 191.113 174.031 197.513 173.931 206.913ZM358.631 191.713C348.731 191.813 341.731 198.813 342.031 208.213C342.231 217.413 349.131 223.913 358.631 223.613C367.731 223.413 374.731 216.513 374.631 207.913C374.431 198.813 367.431 191.613 358.631 191.713Z" fill="black"/>
<path d="M219.932 352.112C229.032 352.112 237.732 352.112 246.532 352.112C254.132 367.712 271.132 373.312 285.732 364.912C294.432 359.912 297.932 351.412 298.732 341.912C299.232 336.312 298.832 330.712 298.832 325.012C294.532 328.212 290.632 331.912 286.132 334.412C262.432 347.312 233.532 337.212 222.432 312.412C212.732 290.712 216.932 263.812 231.932 248.012C245.232 233.912 277.632 227.212 295.532 246.612C296.232 247.312 296.932 247.912 298.332 249.212C298.532 244.912 298.732 241.312 298.832 237.412C307.332 237.412 315.732 237.412 325.032 237.412C325.032 239.312 325.032 241.212 325.032 243.112C325.032 274.212 324.932 305.412 324.932 336.512C324.932 372.112 301.532 393.612 265.932 390.812C251.032 389.612 238.032 384.412 228.432 372.512C223.732 366.612 221.032 359.912 219.932 352.112ZM272.432 317.112C288.132 317.112 299.532 305.012 299.532 288.212C299.532 269.512 288.332 257.212 271.232 257.112C255.332 257.012 244.132 269.412 244.032 287.112C244.032 304.812 255.632 317.112 272.432 317.112Z" fill="#D0F97E"/>
<path d="M45.1309 337.812C45.1309 294.712 45.1309 252.112 45.1309 209.212C46.0309 209.012 47.0309 208.812 47.9309 208.812C65.2309 208.812 82.6309 208.612 99.9309 208.912C132.031 209.512 156.531 229.512 162.131 259.912C166.231 282.112 161.931 302.512 146.131 319.312C135.031 331.112 120.631 337.212 104.631 337.712C85.1309 338.312 65.4309 337.812 45.1309 337.812ZM73.9309 231.312C73.9309 259.912 73.9309 287.312 73.9309 314.412C84.3309 314.412 94.3309 315.312 104.131 314.212C119.831 312.512 129.731 303.212 133.731 287.812C134.531 284.612 135.131 281.312 135.431 278.012C137.131 256.612 126.931 238.012 107.231 233.812C96.6309 231.512 85.2309 232.112 73.9309 231.312Z" fill="#D0F97E"/>
<path d="M361.732 511.413C352.832 511.413 344.832 511.413 336.232 511.413C336.232 495.113 336.232 479.113 336.232 463.213C336.232 460.413 336.232 457.513 335.632 454.813C332.832 440.113 315.532 434.013 303.932 443.613C299.032 447.713 297.632 453.313 297.632 459.313C297.632 474.013 297.832 488.613 297.932 503.313C297.932 505.813 297.932 508.313 297.932 511.213C289.432 511.213 281.232 511.213 272.332 511.213C272.332 481.013 272.332 450.813 272.332 420.213C280.232 420.213 288.432 420.213 297.132 420.213C297.132 422.913 297.132 425.713 297.132 429.813C306.332 420.513 316.632 417.513 328.232 418.013C339.932 418.613 349.232 423.513 355.932 434.013C361.032 426.213 367.532 420.813 376.632 419.213C385.632 417.513 394.532 417.713 403.132 421.213C418.132 427.313 424.632 439.713 425.532 454.513C426.632 473.213 425.832 492.113 425.832 511.413C417.632 511.413 409.532 511.413 400.932 511.413C400.932 507.513 400.932 503.713 400.932 499.913C400.932 486.913 401.032 473.913 400.932 460.913C400.632 443.013 388.732 437.813 374.532 440.313C366.832 441.713 362.032 448.613 361.932 457.813C361.832 473.813 361.832 489.813 361.832 505.813C361.732 507.713 361.732 509.613 361.732 511.413Z" fill="white"/>
<path d="M184.931 78.1125C203.531 62.9125 227.331 61.3125 244.531 73.7125C253.931 80.5125 259.331 90.0125 259.731 101.212C260.431 123.812 259.931 146.412 259.931 169.512C251.131 169.512 242.131 169.512 232.331 169.512C232.331 167.812 232.331 166.113 232.331 164.312C232.231 146.312 232.531 128.312 231.931 110.312C231.431 95.8125 221.531 87.7125 206.531 88.4125C193.131 89.0125 184.731 98.0125 184.731 112.012C184.631 131.012 184.731 150.012 184.731 169.412C175.531 169.412 166.431 169.412 157.031 169.412C157.031 123.112 157.031 76.9125 157.031 30.3125C166.331 30.3125 175.531 30.3125 185.031 30.3125C184.931 46.2125 184.931 61.7125 184.931 78.1125Z" fill="white"/>
<path d="M560.531 338.612C553.231 338.612 546.431 338.612 539.631 338.612C538.131 338.612 536.731 338.412 534.631 338.312C534.631 334.112 534.631 330.012 534.631 325.212C531.731 327.812 529.731 330.012 527.431 331.712C503.231 349.412 469.731 340.412 458.031 312.812C450.131 294.112 450.631 275.512 460.631 257.512C475.231 231.312 515.731 227.612 532.131 248.412C532.431 248.712 532.931 248.912 533.631 249.412C533.731 248.512 533.831 247.912 533.931 247.312C534.331 237.512 534.331 237.512 544.331 237.612C549.631 237.612 554.931 237.612 560.531 237.612C560.531 271.412 560.531 304.612 560.531 338.612ZM535.031 286.212C534.731 278.412 532.531 269.112 523.731 262.712C507.931 251.412 485.631 259.512 480.631 278.212C476.431 294.112 483.531 310.712 496.831 316.112C516.231 324.012 534.831 310.712 535.031 286.212Z" fill="#D0F97E"/>
<path d="M436.131 420.413C444.931 420.413 453.231 420.413 461.831 420.413C461.831 423.513 461.831 426.313 461.831 429.013C462.531 429.213 462.931 429.413 463.131 429.313C476.731 416.613 492.631 415.913 508.731 422.413C524.231 428.713 532.931 441.413 534.631 458.113C536.731 477.513 532.131 494.713 515.231 506.413C500.831 516.413 478.231 517.313 464.631 503.313C464.231 502.913 463.631 502.613 462.731 502.013C462.731 510.513 462.731 518.613 462.731 526.713C462.731 534.813 462.731 543.013 462.731 551.513C454.431 551.513 446.431 551.513 438.131 551.513C437.431 507.913 436.831 464.313 436.131 420.413ZM485.231 440.613C470.531 440.713 461.731 450.113 461.831 465.613C461.931 481.313 472.031 492.013 486.431 491.813C499.831 491.613 510.231 480.013 510.031 465.513C509.831 450.813 499.531 440.513 485.231 440.613Z" fill="white"/>
<path d="M157.731 428.513C149.431 428.513 141.131 428.613 132.931 428.413C131.831 428.413 130.331 427.113 129.631 426.013C120.431 412.713 107.531 408.313 92.1314 411.313C77.8314 414.113 67.1314 425.713 64.3314 440.713C60.5314 460.913 68.3314 479.013 84.7314 487.613C99.0314 495.113 120.931 491.413 129.831 475.413C130.431 474.313 131.931 473.213 133.031 473.113C141.631 472.913 150.331 473.013 159.731 473.013C157.531 482.313 153.431 489.913 147.331 496.413C139.331 505.013 129.331 510.313 118.031 512.413C91.7314 517.413 67.8314 513.313 49.7314 491.413C25.5314 462.313 30.7314 404.313 79.0314 389.813C106.931 381.513 133.531 388.113 150.231 410.013C154.931 416.413 157.431 422.713 157.731 428.513Z" fill="white"/>
<path d="M376.932 137.213C369.432 166.313 339.132 177.213 311.132 170.713C283.232 164.313 267.132 136.513 273.132 107.913C279.832 76.0128 307.732 62.6128 338.632 67.9128C365.032 72.4128 382.432 98.0128 378.432 127.013C352.632 127.013 326.732 127.013 300.832 127.013C300.932 138.713 310.732 148.613 323.032 149.713C333.232 150.613 342.232 148.413 348.432 139.313C349.032 138.413 350.132 137.313 351.032 137.313C359.432 137.113 367.832 137.213 376.932 137.213ZM349.732 109.113C349.732 97.8128 340.132 89.1128 327.132 88.4128C313.432 87.6128 301.732 96.7128 300.632 109.113C317.032 109.113 333.332 109.113 349.732 109.113Z" fill="white"/>
<path d="M611.732 431.013C611.932 427.313 612.032 424.413 612.232 421.213C620.632 421.213 628.732 421.213 637.332 421.213C637.332 451.313 637.332 481.413 637.332 511.913C629.632 511.913 622.032 511.913 613.932 511.913C613.732 508.613 613.432 505.213 613.332 502.913C606.832 506.213 600.632 510.613 593.732 512.613C574.332 518.313 553.532 508.213 544.732 488.813C536.732 471.013 537.632 453.313 548.332 436.913C562.032 415.613 594.032 412.513 611.732 431.013ZM564.832 466.213C564.932 481.113 575.232 492.113 588.832 492.013C603.432 491.913 612.932 481.013 612.732 464.713C612.532 450.313 602.332 440.613 587.732 440.713C574.332 440.813 564.732 451.513 564.832 466.213Z" fill="white"/>
<path d="M213.732 417.913C242.732 417.613 263.432 436.813 263.632 464.113C263.832 491.613 242.932 513.413 216.232 513.813C186.132 514.313 165.632 494.513 164.932 466.413C164.232 437.113 183.632 418.213 213.732 417.913ZM190.432 464.513C190.332 479.913 200.432 491.313 214.432 491.513C227.632 491.713 237.932 480.513 238.132 465.913C238.332 451.013 228.232 439.613 214.732 439.513C200.332 439.213 190.632 449.213 190.432 464.513Z" fill="white"/>
<path d="M75.8312 169.612C75.8312 132.612 75.8312 96.2124 75.8312 59.1124C63.5312 59.1124 51.6313 59.1124 39.5312 59.1124C39.5312 51.1124 39.5312 43.9124 39.5312 36.2124C73.6312 36.2124 107.431 36.2124 141.631 36.2124C141.631 43.8124 141.631 51.2124 141.631 59.0124C129.731 59.0124 117.931 59.0124 105.331 59.0124C105.331 96.1124 105.331 132.712 105.331 169.612C95.2312 169.612 85.9312 169.612 75.8312 169.612Z" fill="white"/>
<path d="M740.631 422.312C750.131 422.312 759.231 422.312 768.631 422.312C776.131 441.513 783.731 460.913 791.531 481.013C792.331 479.413 792.831 478.513 793.231 477.613C799.631 460.513 806.031 443.313 812.531 426.213C813.031 424.813 814.731 423.013 815.931 422.913C824.431 422.613 832.931 422.713 842.331 422.713C839.631 429.313 837.231 435.413 834.731 441.413C820.131 476.113 805.431 510.713 791.131 545.513C788.831 551.213 785.931 553.512 779.831 552.812C774.131 552.212 768.231 552.713 761.531 552.713C763.331 548.213 764.931 544.213 766.531 540.312C770.231 531.412 774.131 522.613 777.631 513.613C778.431 511.613 778.231 508.713 777.331 506.812C765.631 479.912 753.731 453.213 741.931 426.413C741.331 425.113 741.131 423.913 740.631 422.312Z" fill="white"/>
<path d="M740.63 512.413C732.43 512.413 724.431 512.413 715.831 512.413C715.831 509.313 715.831 506.613 715.831 503.813C715.631 488.213 715.83 472.513 714.93 456.913C714.33 445.913 704.83 439.413 692.93 440.113C682.53 440.813 676.131 447.913 676.031 459.213C675.931 475.013 676.03 490.913 676.13 506.713C676.13 508.313 676.13 510.013 676.13 512.113C667.63 512.113 659.43 512.113 650.73 512.113C650.73 481.913 650.73 451.913 650.73 421.413C658.73 421.413 666.931 421.413 675.531 421.413C675.731 424.013 675.83 426.613 675.93 428.313C682.23 425.513 688.43 421.313 695.23 419.813C719.93 414.313 739.931 429.813 740.831 454.813C741.431 473.313 741.031 491.813 741.031 510.313C741.031 510.813 740.83 511.513 740.63 512.413Z" fill="white"/>
<path d="M395.331 211.312C404.931 211.312 413.531 211.312 422.731 211.312C422.731 219.913 422.731 228.312 422.731 237.312C430.431 237.312 437.531 237.312 445.331 237.312C445.331 244.013 445.531 250.112 445.131 256.212C445.131 257.112 442.631 258.512 441.331 258.512C435.331 258.812 429.431 258.613 423.031 258.613C422.831 260.513 422.631 262.012 422.631 263.412C422.531 276.712 422.531 290.112 422.531 303.412C422.531 314.312 425.331 317.113 436.031 317.113C438.831 317.113 441.631 317.113 444.931 317.113C444.931 324.312 444.931 331.212 444.931 339.512C434.831 338.812 424.831 339.213 415.231 337.113C404.031 334.713 397.631 326.312 396.631 314.912C395.731 303.512 395.931 291.912 395.731 280.512C395.631 273.512 395.731 266.512 395.731 259.012C391.431 258.712 387.431 258.413 383.131 258.113C383.131 251.213 383.131 244.612 383.131 237.512C387.131 237.512 390.931 237.512 395.331 237.512C395.331 228.512 395.331 220.113 395.331 211.312Z" fill="#D0F97E"/>
<path d="M607.232 338.513C598.132 338.513 589.432 338.513 580.332 338.513C580.332 294.213 580.332 250.213 580.332 206.013C589.332 206.013 598.132 206.013 607.232 206.013C607.232 250.213 607.232 294.313 607.232 338.513Z" fill="#D0F97E"/>
<path d="M203.131 337.713C194.431 337.713 185.931 337.713 177.131 337.713C177.131 304.213 177.131 270.813 177.131 237.113C185.631 237.113 194.231 237.113 203.131 237.113C203.131 270.613 203.131 304.013 203.131 337.713Z" fill="#D0F97E"/>
<path d="M371.232 337.912C362.532 337.912 354.032 337.912 345.232 337.912C345.232 304.412 345.232 271.112 345.232 237.312C353.732 237.312 362.232 237.312 371.232 237.312C371.232 270.612 371.232 304.012 371.232 337.912Z" fill="#D0F97E"/>
<path d="M173.932 206.913C173.932 197.513 180.532 191.113 190.032 191.213C199.332 191.313 206.732 198.613 206.532 207.513C206.432 216.513 199.132 223.313 190.032 223.213C180.332 223.013 173.932 216.613 173.932 206.913Z" fill="#D0F97E"/>
<path d="M358.632 191.712C367.432 191.612 374.432 198.812 374.532 208.012C374.632 216.612 367.632 223.512 358.532 223.712C349.132 223.912 342.132 217.512 341.932 208.312C341.732 198.712 348.732 191.812 358.632 191.712Z" fill="#D0F97E"/>
<path d="M272.431 317.112C255.631 317.112 244.031 304.912 244.031 287.112C244.031 269.412 255.231 257.012 271.231 257.112C288.331 257.212 299.531 269.512 299.531 288.212C299.631 304.912 288.231 317.112 272.431 317.112Z" fill="black"/>
<path d="M73.9316 231.312C85.2316 232.012 96.6316 231.513 107.332 233.812C127.032 238.012 137.232 256.612 135.532 278.012C135.232 281.312 134.632 284.612 133.832 287.812C129.832 303.212 119.932 312.513 104.232 314.213C94.4316 315.313 84.3316 314.412 74.0316 314.412C73.9316 287.312 73.9316 260.013 73.9316 231.312Z" fill="black"/>
<path d="M535.032 286.212C534.832 310.612 516.332 324.012 496.832 316.112C483.532 310.712 476.432 294.212 480.632 278.212C485.532 259.512 507.932 251.412 523.732 262.712C532.532 269.112 534.732 278.412 535.032 286.212Z" fill="black"/>
<path d="M485.231 440.613C499.531 440.513 509.831 450.813 509.931 465.513C510.131 480.013 499.731 491.613 486.331 491.813C471.931 492.013 461.931 481.313 461.731 465.613C461.631 450.113 470.531 440.713 485.231 440.613Z" fill="black"/>
<path d="M349.731 109.113C333.331 109.113 317.031 109.113 300.631 109.113C301.731 96.8127 313.531 87.6127 327.131 88.4127C340.131 89.2127 349.731 97.9127 349.731 109.113Z" fill="black"/>
<path d="M564.831 466.212C564.731 451.512 574.331 440.912 587.731 440.712C602.331 440.512 612.531 450.312 612.731 464.712C612.931 481.012 603.431 491.912 588.831 492.012C575.231 492.112 564.931 481.012 564.831 466.212Z" fill="black"/>
<path d="M190.432 464.513C190.532 449.313 200.232 439.313 214.732 439.513C228.232 439.713 238.232 451.013 238.132 465.913C237.932 480.413 227.632 491.613 214.432 491.513C200.432 491.313 190.332 479.913 190.432 464.513Z" fill="black"/>
</g>
<defs>
<filter id="filter0_d_870_2636" x="0" y="0" width="876.199" height="587.602" filterUnits="userSpaceOnUse" color-interpolation-filters="sRGB">
<feFlood flood-opacity="0" result="BackgroundImageFix"/>
<feColorMatrix in="SourceAlpha" type="matrix" values="0 0 0 0 0 0 0 0 0 0 0 0 0 0 0 0 0 0 127 0" result="hardAlpha"/>
<feOffset/>
<feGaussianBlur stdDeviation="2"/>
<feComposite in2="hardAlpha" operator="out"/>
<feColorMatrix type="matrix" values="0 0 0 0 0 0 0 0 0 0 0 0 0 0 0 0 0 0 0.3 0"/>
<feBlend mode="normal" in2="BackgroundImageFix" result="effect1_dropShadow_870_2636"/>
<feBlend mode="normal" in="SourceGraphic" in2="effect1_dropShadow_870_2636" result="shape"/>
</filter>
</defs>
</svg>
