<?xml version="1.0" encoding="UTF-8"?>
<svg id="Layer_1" xmlns="http://www.w3.org/2000/svg" version="1.1" viewBox="0 0 200 200">
  <!-- Generator: Adobe Illustrator 30.2.1, SVG Export Plug-In . SVG Version: 2.1.1 Build 1)  -->
  <defs>
    <style>
      .st0 {
        fill: #fff;
      }
    </style>
  </defs>
  <path class="st0" d="M142.4,99.6c-.6,0-1.2,0-1.7.1v-23c0-1.3-1-2.3-2.3-2.3h-20.8c-1.3,0-2.3,1-2.3,2.3v8.8c-3.2-1.6-7.3-2.9-12.7-2.9-8.2,0-14.2,2.8-18.2,6.9-4-4.3-9.8-6.9-16.4-6.9v-5.9c0-1.3-1-2.3-2.3-2.3h-20.8c-1.3,0-2.3,1-2.3,2.3v48c0,1.3,1,2.3,2.3,2.3h23.3c6.4,0,12.1-2.3,16.1-6.5,4,4.2,10.1,7,18.4,7s9.2-1.1,12.6-2.8h0c0,1.3,1,2.3,2.3,2.3h21.1c2.2.6,4.6.7,7.2,0,6.2-1.7,10.7-7.4,10.5-13.8s-6.4-13.6-14-13.6Z"/>
  <path d="M102.6,89.6c12.6,0,17.4,8.2,17.4,15.5s-5.5,15.5-17.3,15.5-17.5-8.2-17.5-15.5,5.2-15.5,17.4-15.5h0ZM102.6,110.8c3.6,0,6-2.4,6-5.8s-2.5-5.8-6-5.8-6,2.4-6,5.8,2.5,5.8,6,5.8Z"/>
  <path d="M122.3,81.4h11.4v38.6h-11.4v-38.6h0Z"/>
  <circle cx="142.4" cy="113.6" r="7"/>
  <path d="M49.5,81.4h11.4v9.5c2.2-.8,4.6-1.2,7-1.2,9,0,15.5,6.6,15.5,15.6s-4.7,14.8-15.2,14.8h-18.6v-38.6ZM60.9,110.4c1.5.3,3.2.4,4.4.4,4.1,0,6.9-2.3,6.9-5.8s-2.7-5.8-6.5-5.8-3.1.2-4.7.7v10.4h0Z"/>
</svg>