<?xml version="1.0" encoding="UTF-8"?>
<svg id="Layer_1" xmlns="http://www.w3.org/2000/svg" version="1.1" viewBox="0 0 200 200">
  <!-- Generator: Adobe Illustrator 30.2.1, SVG Export Plug-In . SVG Version: 2.1.1 Build 1)  -->
  <defs>
    <style>
      .st0 {
        fill: #fff;
      }
    </style>
  </defs>
  <path class="st0" d="M150.2,84.3c-4.5,0-8.7,1.3-12,3.6s-1.4.4-2.1,0c-3.9-2.6-9.3-3.1-13.2-3.1h-7.9s-20.9,0-20.9,0l-.5,1-.5-1h-22.1s-12.7,0-12.7,0h-22.3c-1.1,0-1.9.9-1.9,1.9v13.3c0,1.4-1.5,2.3-2.8,1.7h0c-1.3-.6-2.8.3-2.8,1.7v14.1c0,.8.5,1.5,1.2,1.8l3.1,1.3c1.7.7,3.9,1.5,7.3,1.5s8.2-1.1,11.5-3,1.4-.3,2,0c3.1,2.1,7.1,3,10.9,3s4.2-.2,6.4-.8v.3h33.6s18.3,0,18.3,0c5.4,0,9.5-.9,12.6-2.8.2-.1.4-.2.5-.3.6-.4,1.4-.4,2.1,0,3.4,2.3,7.5,3.6,12,3.6,11.3,0,20.5-8.5,20.5-18.9s-9.2-18.9-20.5-18.9Z"/>
  <path d="M35.6,111.7c.7.3,1.3.6,2,.6,2.3,0,3.5-1.1,3.5-3.1v-17.4h10.2v16.8c0,4-6.1,6.5-11.1,6.5s-3.4-.4-4.6-.9v-2.5h0Z"/>
  <polygon points="78 114.6 78 91.8 88.6 91.8 93.2 101.7 98.4 91.8 108 91.8 108 114.6 97.9 114.6 97.9 101.5 91.6 114.6 88.4 114.6 82.2 101.3 82.2 114.6 78 114.6"/>
  <path d="M111.6,114.7v-22.9h11.3c6.2,0,11.1,1.1,11.1,5.6s-1,4-4.6,4.5c4.8.6,5.4,3.2,5.4,6,0,4.2-3.5,6.7-11.8,6.7h-11.3ZM121.8,112.4c1.3.1,2.4,0,3.5-1.1.9-.9,1.5-2.1,1.5-3.5s-.7-3.1-1.9-4c-1.1-.9-2-1.1-3.1-1v9.6ZM121.8,100.8c1,0,2.1,0,3-.6,1-.6,1.6-1.6,1.6-2.7,0-2.1-1.3-3.5-3.9-3.5s-.5,0-.8,0v6.8h0Z"/>
  <path d="M136.6,103.2c0-6.6,6.1-11.9,13.5-11.9s13.5,5.3,13.5,11.9-6.1,11.9-13.5,11.9-13.5-5.3-13.5-11.9M150.2,112.9c2.4,0,3.1-4,3.1-9.6s-.6-9.7-3.1-9.7-3.1,4-3.1,9.7.6,9.6,3.1,9.6"/>
  <path d="M67.5,112.7c-2.1,0-2.7-2.1-2.7-3.8v-17.1h-10.1v15.4c0,5.3,3.1,8,9.8,8s9.8-2.7,9.8-8v-15.4h-4.1v17.1c0,1.7-.6,3.8-2.7,3.8"/>
</svg>