<?xml version="1.0" encoding="UTF-8"?>
<svg xmlns="http://www.w3.org/2000/svg" version="1.1" viewBox="0 0 200 200">
  <!-- Generator: Adobe Illustrator 30.2.1, SVG Export Plug-In . SVG Version: 2.1.1 Build 1)  -->
  <defs>
    <style>
      .st0 {
        isolation: isolate;
      }

      .st1 {
        fill: #fff;
      }

      .st2 {
        fill: #921309;
        mix-blend-mode: darken;
      }
    </style>
  </defs>
  <g class="st0">
    <g id="Layer_1">
      <path d="M98.3,87.9c12.6,0,17.4,8.2,17.4,15.5s-5.5,15.5-17.3,15.5-17.5-8.2-17.5-15.5,5.2-15.5,17.4-15.5h0ZM98.3,109.1c3.6,0,6-2.4,6-5.8s-2.5-5.8-6-5.8-6,2.4-6,5.8,2.5,5.8,6,5.8Z"/>
      <g>
        <path class="st1" d="M106.3,140c-2.5,0-5-.6-7.3-1.6-.3-.1-.5-.2-.7-.2s-.5,0-.7.2c-2.2,1.1-4.7,1.6-7.3,1.6-7.3,0-13.9-4.6-16.3-11.4-.2-.4-.5-.8-1-1-4.5-1.6-8.2-5.1-10.1-9.7-1.9-4.5-1.8-9.6.3-14,.2-.5.2-1,0-1.4-2.1-4.4-2.2-9.4-.3-14,1.9-4.5,5.5-8,10.1-9.6.5-.2.8-.5,1-1,2.4-6.8,9-11.4,16.3-11.4s5,.6,7.3,1.6c.2.1.5.2.7.2s.5,0,.7-.1c2.3-1.1,4.8-1.7,7.3-1.7,7.3,0,13.9,4.6,16.3,11.4.2.5.5.8,1,1,4.6,1.6,8.3,5.2,10.1,9.7,1.9,4.5,1.8,9.6-.3,13.9-.2.4-.2,1,0,1.4,2.1,4.3,2.2,9.4.3,13.9-1.9,4.5-5.5,8-10.1,9.6-.5.2-.8.5-1,1-2.4,6.8-9,11.4-16.3,11.4h0Z"/>
        <path d="M116,80.3c-2-5.6-8.6-8.3-14-5.8-2.3,1.1-5.1,1.1-7.4,0-5.4-2.6-12,.2-14,5.8-.9,2.5-2.8,4.4-5.3,5.3-5.6,2-8.3,8.6-5.8,14,1.1,2.4,1.1,5.1,0,7.4-2.6,5.4.2,12,5.8,14,2.5.9,4.4,2.8,5.3,5.2,2,5.6,8.6,8.3,14,5.8,2.4-1.1,5.1-1.1,7.4,0,5.4,2.6,12-.2,14-5.8.9-2.5,2.8-4.4,5.3-5.3,5.6-2,8.3-8.6,5.8-13.9-1.1-2.4-1.1-5.1,0-7.5,2.6-5.3-.2-12-5.8-14-2.5-.9-4.4-2.8-5.3-5.2Z"/>
        <path class="st1" d="M87.3,90.6h-3.4v26.2h3.3c6.1,0,8.4-7,8.4-13.4s-2.4-12.8-8.3-12.8ZM87.3,113.8v-20c3.3,0,4.8,2.5,4.8,10s-1.3,10-4.8,10ZM112.5,113.8v3h-9.2v-26.2h9v3.1h-5.6v8h5.6v3h-5.6v9.1h5.8ZM100.7,103.3c0,.8-.7,1.5-1.5,1.5s-1.5-.7-1.5-1.5.7-1.5,1.5-1.5,1.5.7,1.5,1.5Z"/>
        <path class="st2" d="M101.2,126.2c-6.3,1.1-12.4-.3-17.3-3.6,5.1,3.9,11.8,5.7,18.6,4.5,13.1-2.3,21.9-14.8,19.6-27.9-1.2-6.8-5.2-12.5-10.6-16,4.7,3.5,8.2,8.8,9.3,15.1,2.3,13.1-6.5,25.6-19.6,27.9Z"/>
        <path d="M94.1,79.6c-13.1,2.3-21.9,14.8-19.6,27.9,1.2,6.8,5.2,12.5,10.6,16-4.7-3.5-8.2-8.8-9.3-15.1-2.3-13.1,6.5-25.6,19.6-27.9,6.3-1.1,12.4.4,17.3,3.6-5.2-3.9-11.8-5.7-18.6-4.5Z"/>
      </g>
    </g>
  </g>
</svg>